The 2013 Spanish GP kicks off with the first practice sessions held on Friday at the Catalunya Circut. Aired on the BBC.

Date: Friday 10th May 2013 

Length : Practice 1 (1 hour and 45 minutes long)

[Practice 2 will be uploaded in 10 minutes after this Torrent]

Resolution : 608 x 336 (1.810) at 25.000 fps (screens at the bottom)

Audio: MPEG Audio at 128 Kbps

Credit: Hannibal


Full Technical Information : 

Video
ID                             : 0
Format                         : MPEG-4 Visual
Format profile                 : Advanced Simple@L5
Format settings, BVOP          : 2
Format settings, QPel          : No
Format settings, GMC           : No warppoints
Format settings, Matrix        : Default (H.263)
Muxing mode                    : Packed bitstream
Codec ID                       : XVID
Codec ID/Hint                  : XviD
Duration                       : 1h 40mn
Bit rate                       : 1 205 Kbps
Width                          : 608 pixels
Height                         : 336 pixels
Display aspect ratio           : 16:9
Frame rate                     : 25.000 fps
Color space                    : YUV
Chroma subsampling             : 4:2:0
Bit depth                      : 8 bits
Scan type                      : Progressive
Compression mode               : Lossy
Bits/(Pixel*Frame)             : 0.236
Stream size                    : 869 MiB (90%)
Writing library                : XviD 1.2.1 (UTC 2008-12-04)

Audio
ID                             : 1
Format                         : MPEG Audio
Format version                 : Version 1
Format profile                 : Layer 3
Mode                           : Joint stereo
Mode extension                 : MS Stereo
Codec ID                       : 55
Codec ID/Hint                  : MP3
Duration                       : 1h 40mn
Bit rate mode                  : Constant
Bit rate                       : 128 Kbps
Channel(s)                     : 2 channels
Sampling rate                  : 48.0 KHz
Compression mode               : Lossy
Stream size                    : 92.3 MiB (10%)
Alignment                      : Aligned on interleaves
Interleave, duration           : 40 ms (1.00 video frame)
Interleave, preload duration   : 504 ms


Screens : 
 
http://i.imgur.com/fBNig0i.jpg
 
http://i.imgur.com/knsoYCL.jpg
 
http://i.imgur.com/hEwvo4T.jpg

